<svg clip-rule="evenodd" fill-rule="evenodd" stroke-linejoin="round" stroke-miterlimit="2" viewBox="0 0 512 512" xmlns="http://www.w3.org/2000/svg"><path d="m62.294235119 159.322718895h394.145008782v306.987722748h-394.145008782z" fill="#fff" stroke-width=".930909"/><g transform="matrix(.930909 0 0 .930909 -173.869 -112.647)"><path d="m537.916 171.008h-156.475v-20c0-16.557-13.443-30-30-30-16.558 0-30 13.443-30 30v20.933c-61.764 7.564-109.668 60.266-109.668 124.067v250c0 68.989 56.011 125 125 125h250c68.99 0 125-56.011 125-125v-250c0-65.236-50.082-118.868-113.857-124.509v-20.491c0-16.557-13.443-30-30-30-16.558 0-30 13.443-30 30zm-278.238 370.849c0 43.684 35.467 79.151 79.152 79.151h241.697c43.685 0 79.151-35.467 79.151-79.151v-220.844h-400z" fill="#f9423a"/><g fill="#fff" fill-rule="nonzero"><path d="m.322-.525c-.054 0-.107.016-.146.051l-.027-.036h-.096v.51h.15v-.308c0-.054.042-.081.082-.081.042 0 .08.029.08.09v.299h.15v-.296c0-.162-.077-.229-.193-.229z" transform="matrix(115.243 0 0 115.243 255.69056905 298.45925008)"/><path d="m.269.015c.147 0 .233-.086.233-.221v-.098c0-.135-.086-.221-.234-.221-.146 0-.232.086-.232.221v.098c0 .135.086.221.233.221zm-.001-.135c-.056 0-.082-.03-.082-.087v-.096c0-.057.027-.087.083-.087s.083.03.083.087v.096c0 .057-.027.087-.084.087z" transform="matrix(115.243 0 0 115.243 320.45713505 298.45925008)"/><path d="m.054-.564h.15v-.146h-.15zm0 .564h.15v-.51h-.15z" transform="matrix(115.243 0 0 115.243 382.45786905 298.45925008)"/><path d="m.322-.525c-.054 0-.107.016-.146.051l-.027-.036h-.096v.51h.15v-.308c0-.054.042-.081.082-.081.042 0 .08.029.08.09v.299h.15v-.296c0-.162-.077-.229-.193-.229z" transform="matrix(115.243 0 0 115.243 412.30580605 298.45925008)"/><path d="m.355-.77v.274c-.034-.02-.074-.029-.118-.029-.124 0-.201.064-.201.216v.108c0 .152.077.216.201.216.057 0 .108-.015.145-.049l.024.034h.099v-.77zm-.086.649c-.05 0-.083-.028-.083-.084v-.1c0-.056.033-.084.083-.084.051 0 .086.027.086.081v.106c0 .054-.036.081-.086.081z" transform="matrix(115.243 0 0 115.243 477.07237205 298.45925008)"/><path d="m.266-.525c-.144 0-.23.086-.23.221v.095c0 .135.086.224.23.224.133 0 .223-.069.223-.177h-.15v.01c0 .028-.038.047-.071.047-.047 0-.082-.028-.082-.097v-.009h.304v-.119c0-.111-.093-.195-.224-.195zm-.08.207c.002-.057.029-.087.081-.087.048 0 .07.025.07.075v.012z" transform="matrix(115.243 0 0 115.243 541.26272305 298.45925008)"/><path d="m.512-.51h-.165l-.086.129-.084-.129h-.17l.164.253-.161.257h.16l.083-.132.085.132h.171l-.168-.258z" transform="matrix(115.243 0 0 115.243 599.69092405 298.45925008)"/></g></g><g fill="#f9423a" fill-rule="nonzero"><path d="m.507-.622v-.083h-.431v.705h.431v-.084h-.343v-.221h.298v-.084h-.298v-.233z" transform="matrix(86.7053297145 0 0 86.7053297145 99.48890566271 414.63290935378)"/><path d="m.487-.706-.188.593-.188-.593h-.089l.216.705h.122l.216-.705z" transform="matrix(86.7053297145 0 0 86.7053297145 148.04389030283 414.63290935378)"/><path d="m.507-.622v-.083h-.431v.705h.431v-.084h-.343v-.221h.298v-.084h-.298v-.233z" transform="matrix(86.7053297145 0 0 86.7053297145 199.8936774721 414.63290935378)"/><path d="m.477-.705v.544l-.319-.544h-.082v.705h.082v-.543l.319.543h.082v-.705z" transform="matrix(86.7053297145 0 0 86.7053297145 248.44866211222 414.63290935378)"/><path d="m.542-.705h-.53v.083h.221v.622h.088v-.622h.221z" transform="matrix(86.7053297145 0 0 86.7053297145 303.50654648093 414.63290935378)"/><path d="m.311.013c.17 0 .258-.091.257-.209-.001-.258-.415-.171-.415-.331 0-.065.055-.107.152-.107.102 0 .161.048.161.116v.034h.087v-.031c0-.119-.082-.203-.248-.203s-.24.086-.24.193c0 .249.415.149.415.333 0 .076-.066.122-.167.122-.108 0-.176-.051-.176-.126v-.032h-.088v.027c0 .125.094.214.262.214z" transform="matrix(86.7053297145 0 0 86.7053297145 350.06730853761 414.63290935378)"/><path d="m.352-.705h-.276v.705h.088v-.256h.189c.137 0 .215-.071.215-.186v-.077c0-.116-.078-.186-.216-.186zm.129.263c0 .067-.04.102-.124.102h-.193v-.282h.194c.083 0 .123.036.123.103z" transform="matrix(130.1545763805 0 0 130.1545763805 96.18718061496 317.71058109202)"/><path d="m.507 0h.087l-.226-.705h-.121l-.225.705h.086l.062-.184h.274zm-.2-.613.11.345h-.219z" transform="matrix(130.1545763805 0 0 130.1545763805 170.50544372823 317.71058109202)"/><path d="m.311.013c.17 0 .258-.091.257-.209-.001-.258-.415-.171-.415-.331 0-.065.055-.107.152-.107.102 0 .161.048.161.116v.034h.087v-.031c0-.119-.082-.203-.248-.203s-.24.086-.24.193c0 .249.415.149.415.333 0 .076-.066.122-.167.122-.108 0-.176-.051-.176-.126v-.032h-.088v.027c0 .125.094.214.262.214z" transform="matrix(130.1545763805 0 0 130.1545763805 250.68066277861 317.71058109202)"/><path d="m.542-.705h-.53v.083h.221v.622h.088v-.622h.221z" transform="matrix(130.1545763805 0 0 130.1545763805 328.77340860691 317.71058109202)"/></g></svg>